<mxfile host="app.diagrams.net" modified="2022-12-30T00:28:30.496Z" agent="5.0 (Windows)" version="20.7.4" etag="PbesDdF_h-dwypSpCXQk" type="github">
  <diagram id="N1HtW-ULxWURj5wqntlc" name="第 1 页">
    <mxGraphModel dx="1050" dy="634" grid="0" gridSize="10" guides="1" tooltips="1" connect="1" arrows="1" fold="1" page="1" pageScale="1" pageWidth="1169" pageHeight="1654" math="0" shadow="0">
      <root>
        <mxCell id="0" />
        <mxCell id="1" parent="0" />
        <mxCell id="0T-XDhH-nBM5BwNSj58K-20" value="" style="edgeStyle=orthogonalEdgeStyle;rounded=0;orthogonalLoop=1;jettySize=auto;html=1;fontFamily=Verdana;fontSize=16;" edge="1" parent="1" source="0T-XDhH-nBM5BwNSj58K-1" target="0T-XDhH-nBM5BwNSj58K-16">
          <mxGeometry relative="1" as="geometry">
            <Array as="points">
              <mxPoint x="712" y="273" />
              <mxPoint x="712" y="358" />
            </Array>
          </mxGeometry>
        </mxCell>
        <mxCell id="0T-XDhH-nBM5BwNSj58K-1" value="&lt;font style=&quot;font-size: 29px;&quot;&gt;&lt;i style=&quot;font-size: 20px;&quot;&gt;Resnet-18 with modified FC&lt;font style=&quot;font-size: 16px;&quot;&gt; &lt;br&gt;&lt;/font&gt;&lt;/i&gt;&lt;/font&gt;" style="rounded=1;whiteSpace=wrap;html=1;fillColor=#ffe6cc;strokeColor=#d79b00;" vertex="1" parent="1">
          <mxGeometry x="257" y="233" width="400" height="80" as="geometry" />
        </mxCell>
        <mxCell id="0T-XDhH-nBM5BwNSj58K-3" value="" style="edgeStyle=orthogonalEdgeStyle;rounded=0;orthogonalLoop=1;jettySize=auto;html=1;fontSize=16;" edge="1" parent="1" source="0T-XDhH-nBM5BwNSj58K-2" target="0T-XDhH-nBM5BwNSj58K-1">
          <mxGeometry relative="1" as="geometry" />
        </mxCell>
        <mxCell id="0T-XDhH-nBM5BwNSj58K-2" value="" style="rounded=0;whiteSpace=wrap;html=1;fillColor=#dae8fc;strokeColor=#6c8ebf;" vertex="1" parent="1">
          <mxGeometry x="147" y="218" width="10" height="110" as="geometry" />
        </mxCell>
        <mxCell id="0T-XDhH-nBM5BwNSj58K-5" value="Anchor" style="text;html=1;align=center;verticalAlign=middle;resizable=0;points=[];autosize=1;strokeColor=none;fillColor=none;fontSize=16;" vertex="1" parent="1">
          <mxGeometry x="162" y="233" width="70" height="30" as="geometry" />
        </mxCell>
        <mxCell id="0T-XDhH-nBM5BwNSj58K-10" value="" style="edgeStyle=orthogonalEdgeStyle;rounded=0;orthogonalLoop=1;jettySize=auto;html=1;fontSize=16;" edge="1" parent="1" source="0T-XDhH-nBM5BwNSj58K-6" target="0T-XDhH-nBM5BwNSj58K-9">
          <mxGeometry relative="1" as="geometry" />
        </mxCell>
        <mxCell id="0T-XDhH-nBM5BwNSj58K-6" value="" style="rounded=0;whiteSpace=wrap;html=1;fontSize=16;fillColor=#dae8fc;strokeColor=#6c8ebf;" vertex="1" parent="1">
          <mxGeometry x="147" y="398" width="10" height="110" as="geometry" />
        </mxCell>
        <mxCell id="0T-XDhH-nBM5BwNSj58K-21" value="" style="edgeStyle=orthogonalEdgeStyle;rounded=0;orthogonalLoop=1;jettySize=auto;html=1;fontFamily=Verdana;fontSize=16;" edge="1" parent="1" source="0T-XDhH-nBM5BwNSj58K-9">
          <mxGeometry relative="1" as="geometry">
            <mxPoint x="767" y="453" as="targetPoint" />
          </mxGeometry>
        </mxCell>
        <mxCell id="0T-XDhH-nBM5BwNSj58K-9" value="&lt;font style=&quot;font-size: 29px;&quot;&gt;&lt;i style=&quot;font-size: 20px;&quot;&gt;Resnet-18 with modified FC&lt;font style=&quot;font-size: 16px;&quot;&gt; &lt;br&gt;&lt;/font&gt;&lt;/i&gt;&lt;/font&gt;" style="rounded=1;whiteSpace=wrap;html=1;fillColor=#ffe6cc;strokeColor=#d79b00;" vertex="1" parent="1">
          <mxGeometry x="257" y="413" width="400" height="80" as="geometry" />
        </mxCell>
        <mxCell id="0T-XDhH-nBM5BwNSj58K-11" value="Positive" style="text;html=1;align=center;verticalAlign=middle;resizable=0;points=[];autosize=1;strokeColor=none;fillColor=none;fontSize=16;" vertex="1" parent="1">
          <mxGeometry x="167" y="423" width="80" height="30" as="geometry" />
        </mxCell>
        <mxCell id="0T-XDhH-nBM5BwNSj58K-12" value="" style="edgeStyle=orthogonalEdgeStyle;rounded=0;orthogonalLoop=1;jettySize=auto;html=1;fontSize=16;" edge="1" source="0T-XDhH-nBM5BwNSj58K-13" target="0T-XDhH-nBM5BwNSj58K-14" parent="1">
          <mxGeometry relative="1" as="geometry" />
        </mxCell>
        <mxCell id="0T-XDhH-nBM5BwNSj58K-13" value="" style="rounded=0;whiteSpace=wrap;html=1;fontSize=16;fillColor=#dae8fc;strokeColor=#6c8ebf;" vertex="1" parent="1">
          <mxGeometry x="147" y="593" width="10" height="110" as="geometry" />
        </mxCell>
        <mxCell id="0T-XDhH-nBM5BwNSj58K-22" value="" style="edgeStyle=orthogonalEdgeStyle;rounded=0;orthogonalLoop=1;jettySize=auto;html=1;fontFamily=Verdana;fontSize=16;" edge="1" parent="1" source="0T-XDhH-nBM5BwNSj58K-14" target="0T-XDhH-nBM5BwNSj58K-16">
          <mxGeometry x="0.0938" relative="1" as="geometry">
            <Array as="points">
              <mxPoint x="712" y="648" />
              <mxPoint x="712" y="548" />
            </Array>
            <mxPoint as="offset" />
          </mxGeometry>
        </mxCell>
        <mxCell id="0T-XDhH-nBM5BwNSj58K-14" value="&lt;font style=&quot;font-size: 29px;&quot;&gt;&lt;i style=&quot;font-size: 20px;&quot;&gt;Resnet-18 with modified FC&lt;font style=&quot;font-size: 16px;&quot;&gt; &lt;br&gt;&lt;/font&gt;&lt;/i&gt;&lt;/font&gt;" style="rounded=1;whiteSpace=wrap;html=1;fillColor=#ffe6cc;strokeColor=#d79b00;" vertex="1" parent="1">
          <mxGeometry x="257" y="608" width="400" height="80" as="geometry" />
        </mxCell>
        <mxCell id="0T-XDhH-nBM5BwNSj58K-15" value="Positive" style="text;html=1;align=center;verticalAlign=middle;resizable=0;points=[];autosize=1;strokeColor=none;fillColor=none;fontSize=16;" vertex="1" parent="1">
          <mxGeometry x="167" y="618" width="80" height="30" as="geometry" />
        </mxCell>
        <mxCell id="0T-XDhH-nBM5BwNSj58K-16" value="&lt;div&gt;&lt;br&gt;&lt;/div&gt;" style="rounded=0;whiteSpace=wrap;html=1;fontSize=16;align=center;direction=east;fillColor=#f8cecc;strokeColor=#b85450;" vertex="1" parent="1">
          <mxGeometry x="767" y="208" width="20" height="460" as="geometry" />
        </mxCell>
        <mxCell id="0T-XDhH-nBM5BwNSj58K-17" value="3x64x64 input " style="text;html=1;align=center;verticalAlign=middle;resizable=0;points=[];autosize=1;strokeColor=none;fillColor=none;fontSize=16;fontFamily=Verdana;" vertex="1" parent="1">
          <mxGeometry x="85" y="167" width="140" height="30" as="geometry" />
        </mxCell>
        <mxCell id="0T-XDhH-nBM5BwNSj58K-24" value="" style="edgeStyle=orthogonalEdgeStyle;rounded=0;orthogonalLoop=1;jettySize=auto;html=1;fontFamily=Helvetica;fontSize=19;" edge="1" parent="1" target="0T-XDhH-nBM5BwNSj58K-23">
          <mxGeometry relative="1" as="geometry">
            <mxPoint x="787" y="428" as="sourcePoint" />
            <Array as="points">
              <mxPoint x="857" y="428" />
              <mxPoint x="857" y="428" />
            </Array>
          </mxGeometry>
        </mxCell>
        <mxCell id="0T-XDhH-nBM5BwNSj58K-19" value="Normalisation" style="text;html=1;align=center;verticalAlign=middle;resizable=0;points=[];autosize=1;strokeColor=none;fillColor=none;fontSize=16;fontFamily=Verdana;rotation=90;" vertex="1" parent="1">
          <mxGeometry x="712" y="413" width="130" height="30" as="geometry" />
        </mxCell>
        <mxCell id="0T-XDhH-nBM5BwNSj58K-23" value="&lt;div align=&quot;center&quot;&gt;&lt;font face=&quot;Helvetica&quot;&gt;&lt;i&gt;&lt;font style=&quot;font-size: 19px;&quot;&gt;Triplet Loss&lt;/font&gt;&lt;/i&gt;&lt;/font&gt;&lt;/div&gt;" style="rounded=1;whiteSpace=wrap;html=1;fontFamily=Verdana;fontSize=16;align=center;fillColor=#d5e8d4;strokeColor=#82b366;" vertex="1" parent="1">
          <mxGeometry x="927" y="338" width="120" height="170" as="geometry" />
        </mxCell>
      </root>
    </mxGraphModel>
  </diagram>
</mxfile>
